<?xml version="1.0" standalone="no"?><!DOCTYPE svg PUBLIC "-//W3C//DTD SVG 1.1//EN" "http://www.w3.org/Graphics/SVG/1.1/DTD/svg11.dtd">
<svg t="1742806967130" class="icon" viewBox="0 0 1024 1024" version="1.1" xmlns="http://www.w3.org/2000/svg" p-id="4759" xmlns:xlink="http://www.w3.org/1999/xlink" width="128" height="128">
    <path d="M922.977165 97.998965c-0.001023 0-0.00307 0-0.004093 0-0.001023 0-0.00307 0-0.004093 0-1.768273 0-3.461845 0.276293-5.16258 0.520863l0-0.520863c-145.744385 0-283.526425 33.280987-407.015947 91.820242-123.489522-58.539254-261.271562-91.820242-407.015947-91.820242l0 0.520863c-1.700735-0.24457-3.394307-0.520863-5.16258-0.520863-0.001023 0-0.00307 0-0.004093 0-0.001023 0-0.00307 0-0.004093 0-19.983123 0-36.183084 16.19996-36.183084 36.183084L62.420655 789.903358c0 0.547469 0.137123 1.058099 0.161682 1.600451-0.024559 0.542352-0.161682 1.052982-0.161682 1.600451 0 19.987217 16.204054 36.189224 36.190247 36.189224 1.883907 0 3.693112-0.277316 5.499248-0.554632 136.37704 0.052189 265.384229 31.219026 380.731304 86.379323 6.566556 6.702656 15.69547 10.882861 25.818015 10.882861 10.035564 0 19.10922-4.095271 25.663496-10.69355 115.450429-55.281047 244.608044-86.515423 381.14472-86.567611 1.806135 0.277316 3.615341 0.554632 5.499248 0.554632 19.987217 0 36.189224-16.202007 36.189224-36.189224 0-0.547469-0.137123-1.058099-0.161682-1.600451 0.024559-0.542352 0.161682-1.051959 0.161682-1.600451L959.156156 134.182049C959.158203 114.198925 942.960289 97.998965 922.977165 97.998965zM134.784776 166.579923c121.020284 4.193509 235.752352 32.691563 339.694679 80.762395l0 589.095889c-104.95847-44.481074-219.470527-70.578452-339.694679-74.460876L134.784776 166.579923zM546.843576 247.459998c104.010889-48.143487 218.834031-76.682473 339.950506-80.880075L886.794082 761.977331c-120.322389 3.885494-234.921427 30.018687-339.950506 74.564229L546.843576 247.459998z"
          fill="#ffffff" p-id="4760"></path>
    <path d="M634.853026 392.630309l147.255809-31.91999c15.372106-3.331885 25.133424-18.49626 21.801539-33.869389-3.331885-15.372106-18.495236-25.133424-33.869389-21.801539l-147.255809 31.91999c-15.372106 3.331885-25.133424 18.49626-21.801539 33.869389C604.316545 386.200876 619.479897 395.962194 634.853026 392.630309z"
          fill="#ffffff" p-id="4761"></path>
    <path d="M770.040984 440.311261l-147.255809 31.91999c-15.372106 3.331885-25.133424 18.49626-21.801539 33.869389 3.331885 15.372106 18.49626 25.133424 33.869389 21.801539l147.255809-31.91999c15.372106-3.331885 25.133424-18.49626 21.801539-33.869389C800.577464 446.740694 785.414113 436.979376 770.040984 440.311261z"
          fill="#ffffff" p-id="4762"></path>
</svg>