<svg width="32" height="32" viewBox="0 0 32 32" fill="none" xmlns="http://www.w3.org/2000/svg">
<g clip-path="url(#clip0_42_2)">
<path d="M8.22126 8.60474C8.22126 5.50933 10.7819 2.94683 13.8773 2.94683C16.9727 2.94683 19.5352 5.50933 19.5352 8.60474C19.5352 11.7002 16.9727 14.2617 13.8773 14.2617C10.781 14.2617 8.22126 11.7002 8.22126 8.60474ZM4.60979 28.7385C4.38601 28.7415 4.16389 28.6997 3.95656 28.6154C3.74923 28.5311 3.5609 28.4062 3.40269 28.2479C3.24448 28.0896 3.11961 27.9012 3.03545 27.6938C2.95129 27.4864 2.90955 27.2643 2.9127 27.0405C2.9127 21.3835 7.28936 16.7071 12.8283 16.1752H13.9944C15.2738 16.0749 17.087 15.7425 18.0367 14.8939L18.4703 14.5773C20.2845 13.0807 21.3475 10.9509 21.3475 8.60474C21.3475 4.44537 17.9346 1.03339 13.6778 1.03339C9.73382 1.03339 6.32371 4.44537 6.32371 8.60474C6.32371 10.9509 7.38767 13.0807 9.20184 14.5773L9.73382 14.8939L9.20278 15.1103C4.2932 17.0237 1.00019 21.7151 1.00019 27.0405C0.995688 27.518 1.08641 27.9916 1.26707 28.4336C1.44772 28.8756 1.71467 29.2772 2.05232 29.6148C2.38997 29.9525 2.79154 30.2194 3.23355 30.4001C3.67557 30.5807 4.14916 30.6714 4.62665 30.6669H14.3259C14.6425 30.6669 15.1745 30.3513 15.1745 29.7023C15.1745 28.9539 14.6425 28.7385 14.3259 28.7385H4.60979ZM29.2176 24.4799C27.6208 24.6953 26.4388 25.9737 26.4388 27.6717C26.4388 27.9883 26.539 28.421 26.6551 28.6383L25.2737 29.3866L24.7426 28.8547C24.1086 28.421 23.5775 28.2234 22.9285 28.2234C22.3937 28.2234 21.7634 28.4379 21.1143 28.8547C20.8979 29.0691 20.6816 29.1712 20.5804 29.3866L19.3011 28.6383C19.4003 28.421 19.5165 28.0052 19.5165 27.6717C19.519 26.8932 19.2386 26.1403 18.7274 25.5532C18.2162 24.966 17.5091 24.5846 16.7376 24.4799C16.7376 24.2626 16.6365 23.8467 16.6365 23.4131C16.6365 23.0965 16.7376 22.6638 16.7376 22.3482C18.3326 22.1309 19.5165 20.8497 19.5165 19.1535C19.5165 18.836 19.4172 18.4052 19.3011 18.1898L20.6825 17.4396C20.7818 17.5398 20.9963 17.7561 21.2145 17.8732C21.8448 18.305 22.3796 18.5044 22.9125 18.5044C23.4436 18.5044 23.9765 18.289 24.6078 17.8732C24.826 17.6578 25.0405 17.5566 25.1426 17.4396L26.5231 18.1898C26.4238 18.4052 26.3049 18.822 26.3049 19.1535C26.3025 19.9327 26.5833 20.6862 27.095 21.2739C27.6067 21.8615 28.3144 22.2433 29.0865 22.3482C29.0865 22.5636 29.1858 22.9804 29.1858 23.4131C29.3366 23.7287 29.2176 24.1614 29.2176 24.4799ZM30.7171 21.8162C30.615 21.2824 30.1823 20.8506 29.7515 20.8506H29.6503C28.6875 20.8506 27.9551 20.1013 27.9551 19.1535C27.9551 18.9372 28.0544 18.6196 28.0544 18.5213C28.2689 17.9893 28.0544 17.3553 27.6208 17.0237L25.7082 15.9588H25.1744C24.8606 15.9588 24.427 16.0581 24.2106 16.3906C23.9943 16.6079 23.3611 17.1398 22.9303 17.1398C22.4967 17.1398 21.8635 16.6079 21.547 16.3906C21.3325 16.1752 21.015 15.9588 20.5823 15.9588C20.3678 15.9588 20.2676 15.9588 20.1496 16.0581L18.1209 17.123C17.6873 17.4396 17.4869 18.0877 17.6873 18.6196C17.6873 18.6196 17.7866 18.9372 17.7866 19.2528C17.7901 19.4765 17.7487 19.6987 17.6648 19.9061C17.5809 20.1135 17.4562 20.302 17.2981 20.4603C17.14 20.6187 16.9518 20.7437 16.7445 20.8279C16.5372 20.9122 16.3151 20.954 16.0914 20.9508H15.9893C15.5566 20.9508 15.1407 21.3844 15.0246 21.9155C15.0246 22.0157 14.8092 22.764 14.8092 23.5142C14.8092 24.1474 14.9085 25.0118 15.0246 25.1083C15.1257 25.6431 15.5556 26.0758 15.9893 26.0758H16.0914C17.056 26.0758 17.7866 26.8251 17.7866 27.7738C17.7866 27.9883 17.6873 28.3049 17.6873 28.4032C17.4728 28.938 17.6873 29.5665 18.1209 29.9008L20.0325 30.9685C20.2507 30.8683 20.351 30.8683 20.5654 30.8683C20.882 30.8683 21.3147 30.769 21.5329 30.4337C21.7474 30.2183 22.3805 29.5889 22.9135 29.5889C23.3462 29.5889 24.0758 30.12 24.294 30.4337C24.5094 30.651 24.8269 30.8683 25.2596 30.8683C25.4741 30.8683 25.5752 30.8683 25.7906 30.769L27.7031 29.7032C28.1359 29.3876 28.3372 28.7395 28.1359 28.2037C28.1359 28.2037 28.0375 27.89 28.0375 27.5734C28.0375 26.6078 28.7868 25.8754 29.7355 25.8754H29.8348C30.2666 25.8754 30.6834 25.4417 30.7986 24.9107C30.7986 24.9107 31.014 24.0631 31.014 23.3119C30.8154 22.78 30.7171 21.9314 30.7171 21.8162H30.7171ZM22.9303 24.7946C22.1811 24.7946 21.547 24.1614 21.547 23.4131C21.547 22.6638 22.1811 22.0316 22.9303 22.0316C23.6777 22.0316 24.3109 22.6638 24.3109 23.4131C24.3258 24.1614 23.6768 24.7946 22.9303 24.7946ZM23.4614 20.535C21.4309 20.1013 19.6176 21.9155 20.0494 24.0453C20.2667 25.2095 21.2155 26.1741 22.3946 26.3896C24.427 26.8251 26.2402 25.0109 25.8075 22.9804C25.608 21.716 24.6424 20.7504 23.4614 20.535Z" fill="white"/>
</g>
<defs>
<clipPath id="clip0_42_2">
<rect width="30" height="29.9707" fill="white" transform="translate(1 1.01465)"/>
</clipPath>
</defs>
</svg>
