<svg width="32" height="32" viewBox="0 0 32 32" fill="none" xmlns="http://www.w3.org/2000/svg">
<path d="M15.2 2.20001C7.6 2.20001 1.8 8.40001 1.8 15.55" stroke="#E6E9EF" stroke-width="1.9" stroke-linecap="round" stroke-linejoin="round"/>
<path d="M1.8 15.55C1.8 23 7.2 28.8 14.1 29.7" stroke="#E6E9EF" stroke-width="1.9" stroke-linecap="round" stroke-linejoin="round"/>
<path d="M15.2 2.20001C22.8 2.20001 29 8.40001 29 15.55" stroke="#E6E9EF" stroke-width="1.9" stroke-linecap="round" stroke-linejoin="round"/>
<path d="M2.2 15.55H29" stroke="#E6E9EF" stroke-width="1.9" stroke-linecap="round" stroke-linejoin="round"/>
<path d="M15.2 2.20001C11.6 5.55001 9.9 10.45 9.9 15.55" stroke="#E6E9EF" stroke-width="1.9" stroke-linecap="round" stroke-linejoin="round"/>
<path d="M9.9 15.55C9.9 21.05 11.7 26.25 14.1 29.7" stroke="#E6E9EF" stroke-width="1.9" stroke-linecap="round" stroke-linejoin="round"/>
<path d="M15.2 2.20001C18.6 5.55001 20.3 10.45 20.3 15.35" stroke="#E6E9EF" stroke-width="1.9" stroke-linecap="round" stroke-linejoin="round"/>
<path d="M4 9.65002C7.15 11.05 10.9 11.75 15.2 11.75C19.55 11.75 23.25 11.05 26.35 9.65002" stroke="#E6E9EF" stroke-width="1.9" stroke-linecap="round" stroke-linejoin="round"/>
<path d="M4.25 21.55C7.1 20.35 10.45 19.75 14.2 19.7" stroke="#E6E9EF" stroke-width="1.9" stroke-linecap="round" stroke-linejoin="round"/>
<g clip-path="url(#clip0_67_21)">
<path d="M29.369 24.0891C27.6657 24.3189 26.4049 25.6826 26.4049 27.4938C26.4049 27.8315 26.5118 28.293 26.6357 28.5248L25.1621 29.323L24.5957 28.7556C23.9193 28.293 23.3529 28.0822 22.6606 28.0822C22.0901 28.0822 21.4178 28.311 20.7255 28.7556C20.4947 28.9843 20.2639 29.0932 20.156 29.323L18.7914 28.5248C18.8972 28.293 19.0211 27.8495 19.0211 27.4938C19.0238 26.6634 18.7247 25.8603 18.1794 25.234C17.6342 24.6077 16.8799 24.2008 16.057 24.0891C16.057 23.8574 15.9491 23.4138 15.9491 22.9512C15.9491 22.6136 16.057 22.152 16.057 21.8153C17.7584 21.5836 19.0211 20.2169 19.0211 18.4077C19.0211 18.069 18.9152 17.6095 18.7914 17.3797L20.2649 16.5795C20.3708 16.6864 20.5996 16.9171 20.8324 17.042C21.5047 17.5026 22.0751 17.7153 22.6436 17.7153C23.21 17.7153 23.7785 17.4856 24.4518 17.042C24.6846 16.8122 24.9134 16.7043 25.0223 16.5795L26.4948 17.3797C26.3889 17.6095 26.2621 18.054 26.2621 18.4077C26.2596 19.2388 26.5591 20.0426 27.1049 20.6694C27.6507 21.2962 28.4056 21.7035 29.2292 21.8153C29.2292 22.0451 29.3351 22.4897 29.3351 22.9512C29.4959 23.2879 29.369 23.7495 29.369 24.0891ZM30.9685 21.2479C30.8596 20.6785 30.398 20.2179 29.9385 20.2179H29.8306C28.8036 20.2179 28.0223 19.4187 28.0223 18.4077C28.0223 18.1769 28.1282 17.8382 28.1282 17.7333C28.357 17.1659 28.1282 16.4895 27.6657 16.1359L25.6256 15H25.0562C24.7215 15 24.259 15.1059 24.0282 15.4605C23.7974 15.6923 23.1221 16.2598 22.6625 16.2598C22.2 16.2598 21.5247 15.6923 21.187 15.4605C20.9582 15.2308 20.6195 15 20.158 15C19.9292 15 19.8223 15 19.6964 15.1059L17.5326 16.2418C17.07 16.5795 16.8562 17.2708 17.07 17.8382C17.07 17.8382 17.1759 18.1769 17.1759 18.5136C17.1797 18.7522 17.1355 18.9892 17.046 19.2104C16.9565 19.4317 16.8235 19.6327 16.6549 19.8016C16.4862 19.9705 16.2854 20.1039 16.0643 20.1937C15.8432 20.2836 15.6063 20.3282 15.3677 20.3248H15.2588C14.7972 20.3248 14.3537 20.7873 14.2298 21.3538C14.2298 21.4607 14 22.2589 14 23.0591C14 23.7345 14.1059 24.6566 14.2298 24.7595C14.3377 25.3299 14.7962 25.7915 15.2588 25.7915H15.3677C16.3967 25.7915 17.1759 26.5907 17.1759 27.6027C17.1759 27.8315 17.07 28.1691 17.07 28.274C16.8412 28.8445 17.07 29.5148 17.5326 29.8715L19.5716 31.0104C19.8043 30.9035 19.9112 30.9035 20.14 30.9035C20.4777 30.9035 20.9392 30.7976 21.172 30.4399C21.4008 30.2101 22.0761 29.5388 22.6446 29.5388C23.1061 29.5388 23.8843 30.1052 24.1171 30.4399C24.3469 30.6717 24.6856 30.9035 25.1471 30.9035C25.3759 30.9035 25.4838 30.9035 25.7136 30.7976L27.7536 29.6607C28.2151 29.324 28.4299 28.6327 28.2151 28.0612C28.2151 28.0612 28.1102 27.7266 28.1102 27.3889C28.1102 26.3589 28.9094 25.5777 29.9215 25.5777H30.0273C30.4879 25.5777 30.9325 25.1151 31.0553 24.5487C31.0553 24.5487 31.2851 23.6446 31.2851 22.8433C31.0733 22.2759 30.9685 21.3708 30.9685 21.2479ZM22.6626 24.4248C21.8634 24.4248 21.187 23.7495 21.187 22.9512C21.187 22.152 21.8634 21.4777 22.6626 21.4777C23.4598 21.4777 24.1351 22.152 24.1351 22.9512C24.1511 23.7495 23.4588 24.4248 22.6626 24.4248ZM23.229 19.8812C21.0631 19.4187 19.129 21.3538 19.5896 23.6256C19.8213 24.8674 20.8334 25.8964 22.0911 26.1261C24.259 26.5907 26.1931 24.6556 25.7316 22.4897C25.5188 21.141 24.4888 20.111 23.229 19.8812Z" fill="white"/>
</g>
<defs>
<clipPath id="clip0_67_21">
<rect width="30" height="30" fill="white" transform="translate(1 1)"/>
</clipPath>
</defs>
</svg>
